<svg xmlns="http://www.w3.org/2000/svg" x="0px" y="0px"
width="30" height="30"
viewBox="0 0 172 172"
style=" fill:#000000;"><g fill="none" fill-rule="nonzero" stroke="none" stroke-width="1" stroke-linecap="butt" stroke-linejoin="miter" stroke-miterlimit="10" stroke-dasharray="" stroke-dashoffset="0" font-family="none" font-weight="none" font-size="none" text-anchor="none" style="mix-blend-mode: normal"><path d="M0,172v-172h172v172z" fill="none"></path><g id="original-icon" fill="#ffffff"><path d="M30.96,13.76c-9.45834,0 -17.2,7.74166 -17.2,17.2v110.08c0,9.45834 7.74166,17.2 17.2,17.2h57.90219c0.37149,0.0614 0.75054,0.0614 1.12203,0h19.51797c0.37149,0.0614 0.75054,0.0614 1.12203,0h30.41578c9.45834,0 17.2,-7.74166 17.2,-17.2v-110.08c0,-9.45834 -7.74166,-17.2 -17.2,-17.2zM30.96,20.64h110.08c5.73958,0 10.32,4.58042 10.32,10.32v110.08c0,5.73958 -4.58042,10.32 -10.32,10.32h-27.52v-48.16h13.14187l4.81735,-24.08h-17.95922v-6.88c0,-1.91777 0.18249,-2.06768 0.8264,-2.48594c0.64392,-0.41826 2.63362,-0.95406 6.0536,-0.95406h10.32v-19.37015l-1.96187,-0.93391c0,0 -7.90182,-3.77594 -18.67813,-3.77594c-7.74,0 -14.09854,3.0838 -18.1675,8.17c-4.06896,5.0862 -5.9125,11.89667 -5.9125,19.35v6.88h-10.32v24.08h10.32v48.16h-55.04c-5.73958,0 -10.32,-4.58042 -10.32,-10.32v-110.08c0,-5.73958 4.58042,-10.32 10.32,-10.32zM110.08,51.6c7.15197,0 11.65252,1.57709 13.76,2.41203v7.90797h-3.44c-3.95883,0 -7.13127,0.32749 -9.80265,2.06265c-2.67138,1.73519 -3.95735,5.02888 -3.95735,8.25735v13.76h16.44078l-2.06265,10.32h-14.37813v55.04h-13.76v-55.04h-10.32v-10.32h10.32v-13.76c0,-6.30667 1.59646,-11.5362 4.4075,-15.05c2.81104,-3.5138 6.7725,-5.59 12.7925,-5.59z"></path></g></g></svg>