<svg xmlns="http://www.w3.org/2000/svg" width="23.191" height="23.166" viewBox="0 0 23.191 23.166">
  <g id="Group_66" data-name="Group 66" transform="translate(-468.115 -1558.189)">
    <g id="Group_64" data-name="Group 64">
      <path id="Path_119" data-name="Path 119" d="M488.371,1581.355H471.045a3.009,3.009,0,0,1-2.338-1.028,2.578,2.578,0,0,1-.545-2.154l1.793-9.994a3.365,3.365,0,0,1,3.082-2.824h13.342a3.364,3.364,0,0,1,3.084,2.818l1.795,10.006a2.569,2.569,0,0,1-.543,2.147,3.013,3.013,0,0,1-2.344,1.029Zm-15.332-14a1.4,1.4,0,0,0-1.115,1.183l-1.8,9.994a.608.608,0,0,0,.115.517,1.033,1.033,0,0,0,.8.306h17.324a1.035,1.035,0,0,0,.8-.306.6.6,0,0,0,.115-.509l-1.8-10.008a1.4,1.4,0,0,0-1.113-1.177Z" fill="#fff"/>
    </g>
    <g id="Group_65" data-name="Group 65">
      <path id="Path_120" data-name="Path 120" d="M483.373,1570.439a1,1,0,0,1-1-1v-6.5a2.75,2.75,0,0,0-5.5,0v6.5a1,1,0,0,1-2,0v-6.5a4.75,4.75,0,0,1,9.5,0v6.5a1,1,0,0,1-1,1Z" fill="#fff"/>
    </g>
  </g>
</svg>
