<svg xmlns="http://www.w3.org/2000/svg" width="23.332" height="23.332" viewBox="0 0 23.332 23.332">
  <g id="Group_95" data-name="Group 95" transform="translate(-345.531 -815.362)">
    <g id="Group_77" data-name="Group 77">
      <path id="Path_133" data-name="Path 133" d="M357.2,838.694a11.666,11.666,0,1,1,11.664-11.666A11.68,11.68,0,0,1,357.2,838.694Zm0-21.332a9.666,9.666,0,1,0,9.664,9.666,9.678,9.678,0,0,0-9.664-9.666Z" fill="#a191b2"/>
    </g>
    <g id="Group_78" data-name="Group 78">
      <path id="Path_134" data-name="Path 134" d="M357.2,828.028a1,1,0,0,1-1-1v-7.216a1,1,0,0,1,2,0v7.216a1,1,0,0,1-1,1Z" fill="#a191b2"/>
    </g>
    <g id="Group_79" data-name="Group 79">
      <path id="Path_135" data-name="Path 135" d="M357.2,818.01a1,1,0,0,1-1-1v-.648a1,1,0,0,1,2,0v.648a1,1,0,0,1-1,1Z" fill="#a191b2"/>
    </g>
    <g id="Group_80" data-name="Group 80">
      <path id="Path_136" data-name="Path 136" d="M357.2,838.694a1,1,0,0,1-1-1v-.648a1,1,0,0,1,2,0v.648a1,1,0,0,1-1,1Z" fill="#a191b2"/>
    </g>
    <g id="Group_81" data-name="Group 81">
      <path id="Path_137" data-name="Path 137" d="M367.863,828.027h-.648a1,1,0,0,1,0-2h.648a1,1,0,0,1,0,2Z" fill="#a191b2"/>
    </g>
    <g id="Group_82" data-name="Group 82">
      <path id="Path_138" data-name="Path 138" d="M347.18,828.027h-.649a1,1,0,0,1,0-2h.649a1,1,0,0,1,0,2Z" fill="#a191b2"/>
    </g>
    <g id="Group_93" data-name="Group 93">
      <g id="Group_87" data-name="Group 87">
        <g id="Group_83" data-name="Group 83">
          <path id="Path_139" data-name="Path 139" d="M361.746,819.65a.5.5,0,0,1-.433-.75l.292-.509a.5.5,0,0,1,.868.5l-.293.509a.5.5,0,0,1-.434.251Z" fill="#a191b2"/>
        </g>
        <g id="Group_84" data-name="Group 84">
          <path id="Path_140" data-name="Path 140" d="M352.355,835.917a.5.5,0,0,1-.433-.749l.293-.51a.5.5,0,1,1,.867.5l-.293.511a.5.5,0,0,1-.434.251Z" fill="#a191b2"/>
        </g>
        <g id="Group_85" data-name="Group 85">
          <path id="Path_141" data-name="Path 141" d="M365.586,832.369a.5.5,0,0,1-.248-.066l-.508-.292a.5.5,0,1,1,.5-.867l.508.292a.5.5,0,0,1-.25.933Z" fill="#a191b2"/>
        </g>
        <g id="Group_86" data-name="Group 86">
          <path id="Path_142" data-name="Path 142" d="M349.322,822.978a.5.5,0,0,1-.248-.066l-.511-.293a.5.5,0,0,1,.5-.868l.511.293a.5.5,0,0,1-.248.934Z" fill="#a191b2"/>
        </g>
      </g>
      <g id="Group_92" data-name="Group 92">
        <g id="Group_88" data-name="Group 88">
          <path id="Path_143" data-name="Path 143" d="M352.65,819.65a.5.5,0,0,1-.433-.251l-.293-.509a.5.5,0,0,1,.867-.5l.293.509a.5.5,0,0,1-.184.684.508.508,0,0,1-.25.066Z" fill="#a191b2"/>
        </g>
        <g id="Group_89" data-name="Group 89">
          <path id="Path_144" data-name="Path 144" d="M362.045,835.917a.5.5,0,0,1-.432-.248l-.3-.511a.5.5,0,0,1,.866-.5l.3.511a.5.5,0,0,1-.434.751Z" fill="#a191b2"/>
        </g>
        <g id="Group_90" data-name="Group 90">
          <path id="Path_145" data-name="Path 145" d="M348.81,832.369a.5.5,0,0,1-.245-.934l.511-.292a.5.5,0,1,1,.494.869l-.511.292a.509.509,0,0,1-.249.065Z" fill="#a191b2"/>
        </g>
        <g id="Group_91" data-name="Group 91">
          <path id="Path_146" data-name="Path 146" d="M365.078,822.978a.5.5,0,0,1-.25-.933l.508-.293a.5.5,0,1,1,.5.866l-.508.293a.489.489,0,0,1-.25.067Z" fill="#a191b2"/>
        </g>
      </g>
    </g>
    <g id="Group_94" data-name="Group 94">
      <path id="Path_147" data-name="Path 147" d="M354.178,831.048a1,1,0,0,1-.707-1.707l2.9-2.9a1,1,0,0,1,1.414,1.414l-2.9,2.9a.993.993,0,0,1-.707.293Z" fill="#a191b2"/>
    </g>
  </g>
</svg>
