<svg xmlns="http://www.w3.org/2000/svg" width="22.528" height="19.999" viewBox="0 0 22.528 19.999">
  <g id="Group_76" data-name="Group 76" transform="translate(-958.152 -940.795)">
    <g id="Group_70" data-name="Group 70">
      <path id="Path_126" data-name="Path 126" d="M979.68,960.794H959.152a1,1,0,0,1-1-1V943.462a1,1,0,0,1,1-1H979.68a1,1,0,0,1,1,1v16.332a1,1,0,0,1-1,1Zm-19.528-2H978.68V944.462H960.152v14.332Z" fill="#a191b2"/>
    </g>
    <g id="Group_73" data-name="Group 73">
      <g id="Group_71" data-name="Group 71">
        <path id="Path_127" data-name="Path 127" d="M975.791,946.128a1,1,0,0,1-1-1v-3.333a1,1,0,0,1,2,0v3.333a1,1,0,0,1-1,1Z" fill="#a191b2"/>
      </g>
      <g id="Group_72" data-name="Group 72">
        <path id="Path_128" data-name="Path 128" d="M963.041,946.128a1,1,0,0,1-1-1v-3.333a1,1,0,0,1,2,0v3.333a1,1,0,0,1-1,1Z" fill="#a191b2"/>
      </g>
    </g>
    <g id="Group_74" data-name="Group 74">
      <path id="Path_129" data-name="Path 129" d="M979.582,949.364H959.25a.5.5,0,0,1,0-1h20.332a.5.5,0,0,1,0,1Z" fill="#a191b2"/>
    </g>
    <g id="Group_75" data-name="Group 75">
      <path id="Path_130" data-name="Path 130" d="M966.1,956.242h2.511a.914.914,0,0,1,.573.154.506.506,0,0,1,.2.419.561.561,0,0,1-.156.4.631.631,0,0,1-.475.163h-3.539a.768.768,0,0,1-.563-.2.645.645,0,0,1-.2-.47,1.176,1.176,0,0,1,.131-.459,1.638,1.638,0,0,1,.283-.45q.639-.664,1.155-1.137a7.587,7.587,0,0,1,.736-.623,4.325,4.325,0,0,0,.656-.56,2.209,2.209,0,0,0,.4-.578,1.363,1.363,0,0,0,.138-.58,1.03,1.03,0,0,0-.546-.927,1.15,1.15,0,0,0-.551-.135,1.122,1.122,0,0,0-.99.553,2.254,2.254,0,0,0-.163.394,1.62,1.62,0,0,1-.254.495.507.507,0,0,1-.416.174.543.543,0,0,1-.4-.159.588.588,0,0,1-.158-.433,1.812,1.812,0,0,1,.148-.692,1.973,1.973,0,0,1,.446-.654,2.19,2.19,0,0,1,.75-.474,2.867,2.867,0,0,1,1.066-.181,3.089,3.089,0,0,1,1.256.231,1.87,1.87,0,0,1,.592.424,1.985,1.985,0,0,1,.537,1.356,2.052,2.052,0,0,1-.295,1.084,3.385,3.385,0,0,1-.6.766q-.308.274-1.031.868a7.664,7.664,0,0,0-.994.918A2.859,2.859,0,0,0,966.1,956.242Z" fill="#a191b2"/>
      <path id="Path_131" data-name="Path 131" d="M972.709,956.766v-.9h-2.416a.994.994,0,0,1-.686-.206.724.724,0,0,1-.228-.563.535.535,0,0,1,.035-.185.873.873,0,0,1,.1-.2c.045-.07.091-.136.14-.2s.108-.143.178-.236l2.549-3.41a3.818,3.818,0,0,1,.412-.488.54.54,0,0,1,.387-.152c.488,0,.73.279.73.837v3.723h.207a1.446,1.446,0,0,1,.594.1.431.431,0,0,1,.224.443.458.458,0,0,1-.183.406.959.959,0,0,1-.547.127h-.3v.9a.806.806,0,0,1-.162.55.613.613,0,0,1-.873,0A.8.8,0,0,1,972.709,956.766Zm-2.068-1.972h2.068V952Z" fill="#a191b2"/>
    </g>
  </g>
</svg>
