<svg xmlns="http://www.w3.org/2000/svg" width="20.504" height="24.25" viewBox="0 0 20.504 24.25">
  <g id="Group_69" data-name="Group 69" transform="translate(-1081.639 -752.864)">
    <g id="Group_67" data-name="Group 67">
      <path id="Path_121" data-name="Path 121" d="M1091.891,777.114a1,1,0,0,1-.649-.239c-.982-.838-9.6-8.343-9.6-13.76a10.252,10.252,0,0,1,20.5,0c0,5.417-8.62,12.922-9.6,13.76a.992.992,0,0,1-.648.239Zm0-22.25a8.261,8.261,0,0,0-8.252,8.251c0,3.512,5.459,9.153,8.252,11.668,2.793-2.515,8.252-8.156,8.252-11.668a8.261,8.261,0,0,0-8.252-8.251Z" fill="#a191b2"/>
    </g>
    <g id="Group_68" data-name="Group 68">
      <path id="Path_122" data-name="Path 122" d="M1091.891,768.115a5,5,0,1,1,5-5,5.006,5.006,0,0,1-5,5Zm0-8a3,3,0,1,0,3,3,3,3,0,0,0-3-3Z" fill="#a191b2"/>
    </g>
  </g>
</svg>
