<svg xmlns="http://www.w3.org/2000/svg" width="24.629" height="21.349" viewBox="0 0 24.629 21.349">
  <g id="Group_63" data-name="Group 63" transform="translate(-1753.396 -1497.214)">
    <path id="Path_118" data-name="Path 118" d="M1765.883,1518.563a1,1,0,0,1-.608-.207l-.308-.214c-.777-.541-2.6-1.808-3.813-2.745-4.609-3.584-6.961-6.169-7.406-8.13a7.461,7.461,0,0,1-.351-2.23,7.918,7.918,0,0,1,2.2-5.634,6.747,6.747,0,0,1,4.8-2.063h0a7.04,7.04,0,0,1,5.239,2.288,6.945,6.945,0,0,1,5.185-2.413h.135a7.375,7.375,0,0,1,7.06,7.515,7.861,7.861,0,0,1-.316,2.325c-.373,1.884-2.723,4.608-7.16,8.244a44.918,44.918,0,0,1-4.131,3.109.989.989,0,0,1-.535.156Zm-5.4-19.223a4.8,4.8,0,0,0-3.452,1.465,5.907,5.907,0,0,0-1.63,4.208,5.751,5.751,0,0,0,.277,1.722c.209.9,1.322,2.894,6.707,7.082,1.072.829,2.67,1.946,3.517,2.536.887-.61,2.022-1.482,3.381-2.6,5.258-4.309,6.325-6.347,6.491-7.178a6.153,6.153,0,0,0,.255-1.821,5.374,5.374,0,0,0-5.06-5.539h-.106a5.029,5.029,0,0,0-4.324,2.6,1,1,0,0,1-.855.5h-.014a1,1,0,0,1-.856-.482,5.049,5.049,0,0,0-4.331-2.5Z" fill="#a191b2"/>
  </g>
</svg>
