<svg xmlns="http://www.w3.org/2000/svg" width="16.142" height="26.292" viewBox="0 0 16.142 26.292">
  <g id="Path_124" data-name="Path 124" transform="translate(-2012.175 -1771.938)" fill="none" stroke-miterlimit="10">
    <path d="M2022.284,1774.565l-.061-.2a.617.617,0,0,0-.773-.4l-3.82,1.2-2.448.77a1.438,1.438,0,0,0-.94,1.8h0l.369,1.175.432,1.371.369,1.176.431,1.371.37,1.175.431,1.372.37,1.175.431,1.371.37,1.176.431,1.371,1.337,4.25a2.078,2.078,0,0,0,2.441,1.447,2,2,0,0,0,1.412-2.54l-1.185-3.771a.615.615,0,0,1,.4-.772l3.233-1.017a.616.616,0,0,0,.4-.772l-.061-.2a.616.616,0,0,0-.773-.4l-3.232,1.016a.615.615,0,0,1-.772-.4h0a.616.616,0,0,1,.4-.773l3.232-1.016a.617.617,0,0,0,.4-.773l-.062-.2a.615.615,0,0,0-.772-.4l-3.233,1.016a.615.615,0,0,1-.772-.4h0a.615.615,0,0,1,.4-.772l3.232-1.017a.616.616,0,0,0,.4-.772l-.062-.2a.616.616,0,0,0-.772-.4l-3.232,1.016a.616.616,0,0,1-.773-.4h0a.615.615,0,0,1,.4-.772l3.232-1.016a.616.616,0,0,0,.4-.773l-.062-.2a.616.616,0,0,0-.772-.4l-3.232,1.017a.616.616,0,0,1-.773-.4h0a.617.617,0,0,1,.4-.773l3.232-1.016a.615.615,0,0,0,.4-.772l-.061-.2a.616.616,0,0,0-.773-.4l-3.232,1.016a.617.617,0,0,1-.773-.4h0a.616.616,0,0,1,.4-.772l3.233-1.016A.617.617,0,0,0,2022.284,1774.565Z" stroke="none"/>
    <path d="M 2021.634643554688 1773.9375 C 2021.573486328125 1773.9375 2021.511352539063 1773.946655273438 2021.449951171875 1773.965942382813 L 2017.630004882813 1775.16796875 L 2015.182006835938 1775.93798828125 C 2014.425048828125 1776.176025390625 2014.004028320313 1776.983032226563 2014.241943359375 1777.739990234375 L 2014.610961914063 1778.9150390625 L 2015.04296875 1780.286010742188 L 2015.411987304688 1781.462036132813 L 2015.843017578125 1782.8330078125 L 2016.213012695313 1784.008056640625 L 2016.64404296875 1785.380004882813 L 2017.014038085938 1786.555053710938 L 2017.444946289063 1787.926025390625 L 2017.81494140625 1789.10205078125 L 2018.245971679688 1790.473022460938 L 2019.5830078125 1794.723022460938 C 2019.859619140625 1795.60302734375 2020.672973632813 1796.229614257813 2021.556396484375 1796.229614257813 C 2021.711059570313 1796.229614257813 2021.86767578125 1796.21044921875 2022.024047851563 1796.170043945313 C 2023.142944335938 1795.880981445313 2023.779052734375 1794.718994140625 2023.43603515625 1793.630004882813 L 2022.2509765625 1789.859008789063 C 2022.14794921875 1789.535034179688 2022.328979492188 1789.18896484375 2022.652954101563 1789.087036132813 L 2025.885986328125 1788.069946289063 C 2026.2099609375 1787.968017578125 2026.390014648438 1787.621948242188 2026.287963867188 1787.297973632813 L 2026.22705078125 1787.10205078125 C 2026.144287109375 1786.838623046875 2025.9013671875 1786.67041015625 2025.639282226563 1786.67041015625 C 2025.577880859375 1786.67041015625 2025.515625 1786.6796875 2025.453979492188 1786.698974609375 L 2022.222045898438 1787.714965820313 C 2022.160400390625 1787.734619140625 2022.097900390625 1787.743896484375 2022.036376953125 1787.743896484375 C 2021.775024414063 1787.743896484375 2021.532592773438 1787.575317382813 2021.449951171875 1787.31298828125 C 2021.348022460938 1786.988037109375 2021.527954101563 1786.641967773438 2021.85302734375 1786.5400390625 L 2025.0849609375 1785.524047851563 C 2025.409057617188 1785.421997070313 2025.589965820313 1785.076049804688 2025.488037109375 1784.7509765625 L 2025.426025390625 1784.555053710938 C 2025.343383789063 1784.292602539063 2025.100830078125 1784.1240234375 2024.839477539063 1784.1240234375 C 2024.778076171875 1784.1240234375 2024.715698242188 1784.133422851563 2024.654052734375 1784.152954101563 L 2021.421020507813 1785.1689453125 C 2021.359619140625 1785.188354492188 2021.29736328125 1785.197509765625 2021.236206054688 1785.197509765625 C 2020.974609375 1785.197509765625 2020.731689453125 1785.029296875 2020.649047851563 1784.765991210938 C 2020.546997070313 1784.442016601563 2020.72705078125 1784.095947265625 2021.052001953125 1783.994018554688 L 2024.284057617188 1782.97705078125 C 2024.609008789063 1782.875 2024.788940429688 1782.529052734375 2024.68701171875 1782.204956054688 L 2024.625 1782.009033203125 C 2024.542358398438 1781.74560546875 2024.29931640625 1781.577392578125 2024.037841796875 1781.577392578125 C 2023.9765625 1781.577392578125 2023.914428710938 1781.586669921875 2023.85302734375 1781.60595703125 L 2020.620971679688 1782.621948242188 C 2020.559326171875 1782.641357421875 2020.496948242188 1782.650512695313 2020.435546875 1782.650512695313 C 2020.173461914063 1782.650512695313 2019.9306640625 1782.482543945313 2019.848022460938 1782.219970703125 L 2019.848022460938 1782.218994140625 C 2019.745971679688 1781.89501953125 2019.926025390625 1781.548950195313 2020.2509765625 1781.447021484375 L 2023.483032226563 1780.431030273438 C 2023.807983398438 1780.328979492188 2023.988037109375 1779.983032226563 2023.885986328125 1779.657958984375 L 2023.823974609375 1779.462036132813 C 2023.741333007813 1779.19921875 2023.498046875 1779.030517578125 2023.236328125 1779.030517578125 C 2023.17529296875 1779.030517578125 2023.11328125 1779.039672851563 2023.052001953125 1779.058959960938 L 2019.819946289063 1780.076049804688 C 2019.75830078125 1780.095336914063 2019.696044921875 1780.104614257813 2019.634765625 1780.104614257813 C 2019.37255859375 1780.104614257813 2019.129760742188 1779.936401367188 2019.046997070313 1779.672973632813 C 2018.944946289063 1779.348022460938 2019.1259765625 1779.003051757813 2019.449951171875 1778.900024414063 L 2022.682006835938 1777.884033203125 C 2023.006958007813 1777.781982421875 2023.18701171875 1777.43603515625 2023.0849609375 1777.112060546875 L 2023.024047851563 1776.916015625 C 2022.94140625 1776.652587890625 2022.698364257813 1776.484375 2022.436279296875 1776.484375 C 2022.374877929688 1776.484375 2022.312622070313 1776.49365234375 2022.2509765625 1776.512939453125 L 2019.01904296875 1777.529052734375 C 2018.957397460938 1777.54833984375 2018.895141601563 1777.5576171875 2018.833862304688 1777.5576171875 C 2018.571899414063 1777.5576171875 2018.329467773438 1777.389404296875 2018.245971679688 1777.1259765625 C 2018.14404296875 1776.802001953125 2018.324951171875 1776.4560546875 2018.649047851563 1776.35400390625 L 2021.881958007813 1775.338012695313 C 2022.2060546875 1775.234985351563 2022.385986328125 1774.890014648438 2022.284057617188 1774.56494140625 L 2022.223022460938 1774.369018554688 C 2022.140258789063 1774.106323242188 2021.89697265625 1773.9375 2021.634643554688 1773.9375 M 2021.634521484375 1771.9375 L 2021.634643554688 1771.9375 C 2022.782592773438 1771.937622070313 2023.785766601563 1772.673217773438 2024.130615234375 1773.76806640625 L 2024.131591796875 1773.771118164063 L 2024.132446289063 1773.774047851563 L 2024.193481445313 1773.969970703125 C 2024.325561523438 1774.39111328125 2024.344482421875 1774.82177734375 2024.267578125 1775.22900390625 C 2024.56787109375 1775.5234375 2024.79931640625 1775.893432617188 2024.932250976563 1776.317016601563 L 2024.93310546875 1776.31982421875 L 2024.933959960938 1776.322631835938 L 2024.994873046875 1776.518676757813 C 2025.1240234375 1776.932739257813 2025.148193359375 1777.362915039063 2025.070068359375 1777.777709960938 C 2025.368774414063 1778.071411132813 2025.59912109375 1778.440063476563 2025.731811523438 1778.862060546875 L 2025.792724609375 1779.054443359375 C 2025.92626953125 1779.4794921875 2025.94580078125 1779.9130859375 2025.868896484375 1780.322387695313 C 2026.1689453125 1780.61669921875 2026.400268554688 1780.986572265625 2026.533203125 1781.410034179688 L 2026.59375 1781.601440429688 C 2026.725341796875 1782.019897460938 2026.750366210938 1782.453369140625 2026.671875 1782.870727539063 C 2026.970581054688 1783.164306640625 2027.200927734375 1783.53271484375 2027.333740234375 1783.954345703125 L 2027.394775390625 1784.147338867188 L 2027.395629882813 1784.150024414063 L 2027.396484375 1784.152587890625 C 2027.529052734375 1784.575561523438 2027.54833984375 1785.007690429688 2027.471313476563 1785.415771484375 C 2027.771240234375 1785.710083007813 2028.002319335938 1786.079711914063 2028.13525390625 1786.503051757813 L 2028.136108398438 1786.505615234375 L 2028.136840820313 1786.50830078125 L 2028.196655273438 1786.700439453125 C 2028.405151367188 1787.365478515625 2028.3427734375 1788.072265625 2028.020751953125 1788.690795898438 C 2027.697875976563 1789.310913085938 2027.152954101563 1789.767944335938 2026.486206054688 1789.977783203125 L 2024.57373046875 1790.579345703125 L 2025.343994140625 1793.030395507813 C 2025.671875 1794.071044921875 2025.55615234375 1795.216552734375 2025.026123046875 1796.171997070313 C 2024.496215820313 1797.127563476563 2023.584350585938 1797.832641601563 2022.524291992188 1798.1064453125 C 2022.207641601563 1798.188232421875 2021.882202148438 1798.229614257813 2021.556396484375 1798.229614257813 C 2019.80908203125 1798.229614257813 2018.212890625 1797.0341796875 2017.675048828125 1795.322631835938 L 2016.338134765625 1791.0732421875 L 2015.906982421875 1789.701904296875 L 2015.537109375 1788.526245117188 L 2015.106079101563 1787.15478515625 L 2014.736328125 1785.980712890625 L 2014.304931640625 1784.607543945313 L 2013.935302734375 1783.433715820313 L 2013.504028320313 1782.061889648438 L 2013.134765625 1780.884765625 L 2012.703369140625 1779.51611328125 L 2012.333862304688 1778.339233398438 C 2011.765747070313 1776.531860351563 2012.774291992188 1774.5986328125 2014.58203125 1774.030151367188 L 2017.029907226563 1773.260131835938 L 2020.849609375 1772.05810546875 C 2021.105590820313 1771.977905273438 2021.369018554688 1771.9375 2021.634521484375 1771.9375 Z" stroke="none" fill="#a190b2"/>
  </g>
</svg>
